<mxfile host="app.diagrams.net" modified="2021-03-11T16:28:53.835Z" agent="5.0 (Windows NT 10.0; Win64; x64) AppleWebKit/537.36 (KHTML, like Gecko) Chrome/89.0.4389.82 Safari/537.36" etag="yI7C34_yyVJQMw3V-zQ8" version="14.4.7" type="github">
  <diagram id="C5RBs43oDa-KdzZeNtuy" name="Page-1">
    <mxGraphModel dx="964" dy="500" grid="1" gridSize="10" guides="1" tooltips="1" connect="1" arrows="1" fold="1" page="1" pageScale="1" pageWidth="827" pageHeight="1169" math="0" shadow="0">
      <root>
        <mxCell id="WIyWlLk6GJQsqaUBKTNV-0" />
        <mxCell id="WIyWlLk6GJQsqaUBKTNV-1" parent="WIyWlLk6GJQsqaUBKTNV-0" />
        <mxCell id="WIyWlLk6GJQsqaUBKTNV-2" value="" style="rounded=0;html=1;jettySize=auto;orthogonalLoop=1;fontSize=11;endArrow=block;endFill=0;endSize=8;strokeWidth=1;shadow=0;labelBackgroundColor=none;edgeStyle=orthogonalEdgeStyle;" parent="WIyWlLk6GJQsqaUBKTNV-1" source="WIyWlLk6GJQsqaUBKTNV-3" target="WIyWlLk6GJQsqaUBKTNV-6" edge="1">
          <mxGeometry relative="1" as="geometry" />
        </mxCell>
        <mxCell id="WIyWlLk6GJQsqaUBKTNV-3" value="Parent Dataset is Created" style="rounded=1;whiteSpace=wrap;html=1;fontSize=12;glass=0;strokeWidth=1;shadow=0;" parent="WIyWlLk6GJQsqaUBKTNV-1" vertex="1">
          <mxGeometry x="160" y="80" width="120" height="40" as="geometry" />
        </mxCell>
        <mxCell id="WIyWlLk6GJQsqaUBKTNV-6" value="Allow Files to Be Saved in Parent?" style="rhombus;whiteSpace=wrap;html=1;shadow=0;fontFamily=Helvetica;fontSize=10;align=center;strokeWidth=1;spacing=6;spacingTop=-4;" parent="WIyWlLk6GJQsqaUBKTNV-1" vertex="1">
          <mxGeometry x="170" y="170" width="100" height="80" as="geometry" />
        </mxCell>
        <mxCell id="Qzo48M9Tub4ixmZhIlxQ-4" value="" style="edgeStyle=orthogonalEdgeStyle;rounded=0;orthogonalLoop=1;jettySize=auto;html=1;fontSize=10;endArrow=classic;endFill=0;" edge="1" parent="WIyWlLk6GJQsqaUBKTNV-1">
          <mxGeometry relative="1" as="geometry">
            <mxPoint x="330" y="209.44" as="sourcePoint" />
            <mxPoint x="430" y="209.44" as="targetPoint" />
            <Array as="points">
              <mxPoint x="300" y="209.44" />
            </Array>
          </mxGeometry>
        </mxCell>
        <mxCell id="WIyWlLk6GJQsqaUBKTNV-7" value="Two View Display - Parent Files and Children." style="rounded=1;whiteSpace=wrap;html=1;fontSize=10;glass=0;strokeWidth=1;shadow=0;" parent="WIyWlLk6GJQsqaUBKTNV-1" vertex="1">
          <mxGeometry x="460" y="190" width="120" height="40" as="geometry" />
        </mxCell>
        <mxCell id="WIyWlLk6GJQsqaUBKTNV-11" value="Child Dataset is Auto Created" style="rounded=1;whiteSpace=wrap;html=1;fontSize=12;glass=0;strokeWidth=1;shadow=0;" parent="WIyWlLk6GJQsqaUBKTNV-1" vertex="1">
          <mxGeometry x="160" y="400" width="120" height="40" as="geometry" />
        </mxCell>
        <mxCell id="Qzo48M9Tub4ixmZhIlxQ-5" value="&lt;p class=&quot;MsoListParagraphCxSpFirst&quot; style=&quot;text-indent: -0.25in ; font-size: 12px&quot;&gt;&lt;font style=&quot;font-size: 12px&quot;&gt;&lt;span style=&quot;line-height: 107% ; font-family: &amp;#34;calibri light&amp;#34; , sans-serif&quot;&gt;1.&lt;span style=&quot;font-stretch: normal ; line-height: normal ; font-family: &amp;#34;times new roman&amp;#34;&quot;&gt;&amp;nbsp;&amp;nbsp;&amp;nbsp;&amp;nbsp;&amp;nbsp;&lt;br&gt;&lt;/span&gt;&lt;/span&gt;&lt;span style=&quot;line-height: 107% ; font-family: &amp;#34;calibri light&amp;#34; , sans-serif&quot;&gt;Do you allow files to be saved in a parent dataset?&amp;nbsp; if&amp;nbsp;yes, then what happens when you make a child dataset?&amp;nbsp; If no, then that must mean that the child&lt;br&gt;dataset would be auto created and hidden.&amp;nbsp;&lt;/span&gt;&lt;/font&gt;&lt;/p&gt;&lt;p class=&quot;MsoListParagraphCxSpFirst&quot; style=&quot;text-indent: -0.25in ; font-size: 12px&quot;&gt;&lt;span style=&quot;font-family: &amp;#34;calibri light&amp;#34; , sans-serif ; text-indent: -0.25in&quot;&gt;a.&lt;/span&gt;&lt;span style=&quot;text-indent: -0.25in ; font-stretch: normal ; line-height: normal ; font-family: &amp;#34;times new roman&amp;#34;&quot;&gt;&amp;nbsp; &amp;nbsp; &amp;nbsp;&amp;nbsp;&lt;/span&gt;&lt;span style=&quot;font-family: &amp;#34;calibri light&amp;#34; , sans-serif ; text-indent: -0.25in&quot;&gt;Parents can&amp;nbsp;&lt;/span&gt;&lt;span style=&quot;font-family: &amp;#34;calibri light&amp;#34; , sans-serif ; text-indent: -0.25in&quot;&gt;have more than one child but must always have at least one child. Options –&lt;/span&gt;&lt;span style=&quot;font-family: &amp;#34;calibri light&amp;#34; , sans-serif ; text-indent: -0.25in&quot;&gt;rename, edit.&amp;nbsp; Drill into the child, have&amp;nbsp;&lt;/span&gt;&lt;span style=&quot;font-family: &amp;#34;calibri light&amp;#34; , sans-serif ; text-indent: -0.25in&quot;&gt;your file review, upload, move to, etc.&lt;/span&gt;&lt;/p&gt;&lt;span style=&quot;font-family: &amp;#34;calibri light&amp;#34; , sans-serif ; font-size: 12px ; text-indent: -0.25in&quot;&gt;b.&lt;/span&gt;&lt;span style=&quot;font-size: 12px ; text-indent: -0.25in ; font-stretch: normal ; line-height: normal ; font-family: &amp;#34;times new roman&amp;#34;&quot;&gt;&amp;nbsp; &amp;nbsp; &amp;nbsp;&lt;span style=&quot;font-family: &amp;#34;calibri light&amp;#34; , sans-serif ; text-indent: -0.25in&quot;&gt;Location&lt;/span&gt;&lt;br&gt;&lt;/span&gt;&lt;br&gt;&lt;span style=&quot;font-family: &amp;#34;calibri light&amp;#34; , sans-serif ; font-size: 12px ; text-indent: -0.25in&quot;&gt;c.&lt;/span&gt;&lt;span style=&quot;font-size: 12px ; text-indent: -0.25in ; font-stretch: normal ; line-height: normal ; font-family: &amp;#34;times new roman&amp;#34;&quot;&gt;&amp;nbsp; &amp;nbsp; &amp;nbsp;&amp;nbsp;&lt;span style=&quot;font-family: &amp;#34;calibri light&amp;#34; , sans-serif ; text-indent: -0.25in&quot;&gt;Parent will&lt;/span&gt;&lt;span style=&quot;font-family: &amp;#34;calibri light&amp;#34; , sans-serif ; text-indent: -0.25in&quot;&gt;have basic metadata – name, child count, classification, location?&lt;/span&gt;&lt;span style=&quot;font-family: &amp;#34;calibri light&amp;#34; , sans-serif ; text-indent: -0.25in&quot;&gt;&lt;br&gt;&lt;/span&gt;&lt;/span&gt;&lt;br&gt;&lt;span style=&quot;font-family: &amp;#34;calibri light&amp;#34; , sans-serif ; font-size: 12px ; text-indent: -0.25in&quot;&gt;d.&lt;/span&gt;&lt;span style=&quot;font-size: 12px ; text-indent: -0.25in ; font-stretch: normal ; line-height: normal ; font-family: &amp;#34;times new roman&amp;#34;&quot;&gt;&amp;nbsp; &amp;nbsp; &amp;nbsp;&lt;span style=&quot;font-family: &amp;#34;calibri light&amp;#34; , sans-serif ; text-indent: -0.25in&quot;&gt;What if a&amp;nbsp;&lt;/span&gt;&lt;span style=&quot;font-family: &amp;#34;calibri light&amp;#34; , sans-serif ; text-indent: -0.25in&quot;&gt;child is empty?&lt;/span&gt;&lt;/span&gt;&lt;br&gt;&lt;p class=&quot;MsoListParagraphCxSpMiddle&quot; style=&quot;margin-left: 1in ; text-indent: -0.25in ; font-size: 12px&quot;&gt;&lt;font style=&quot;font-size: 12px&quot;&gt;&lt;span style=&quot;line-height: 107% ; font-family: &amp;#34;calibri light&amp;#34; , sans-serif&quot;&gt;e.&lt;span style=&quot;font-stretch: normal ; line-height: normal ; font-family: &amp;#34;times new roman&amp;#34;&quot;&gt;&amp;nbsp;&amp;nbsp;&amp;nbsp;&amp;nbsp;&amp;nbsp;&lt;/span&gt;&lt;/span&gt;&lt;span style=&quot;line-height: 107% ; font-family: &amp;#34;calibri light&amp;#34; , sans-serif&quot;&gt;If yes, Give the user the option to move to an existing child or a new child?&lt;/span&gt;&lt;/font&gt;&lt;/p&gt;&lt;br&gt;&lt;span style=&quot;font-family: &amp;#34;calibri light&amp;#34; , sans-serif ; font-size: 12px ; text-indent: -0.25in&quot;&gt;2.&lt;/span&gt;&lt;span style=&quot;font-size: 12px ; text-indent: -0.25in ; font-stretch: normal ; line-height: normal ; font-family: &amp;#34;times new roman&amp;#34;&quot;&gt;&amp;nbsp; &amp;nbsp; &amp;nbsp;&lt;span style=&quot;font-family: &amp;#34;calibri light&amp;#34; , sans-serif ; text-indent: -0.25in&quot;&gt;Can you nest&amp;nbsp;&lt;/span&gt;&lt;span style=&quot;font-family: &amp;#34;calibri light&amp;#34; , sans-serif ; text-indent: -0.25in&quot;&gt;children within children (parents and children at same time) Grandchildren. No.&lt;/span&gt;&lt;span style=&quot;font-family: &amp;#34;calibri light&amp;#34; , sans-serif ; text-indent: -0.25in&quot;&gt;&lt;br&gt;&lt;/span&gt;&lt;/span&gt;&lt;br&gt;&lt;span style=&quot;font-family: &amp;#34;calibri light&amp;#34; , sans-serif ; font-size: 12px ; text-indent: -0.25in&quot;&gt;a.&lt;/span&gt;&lt;span style=&quot;font-size: 12px ; text-indent: -0.25in ; font-stretch: normal ; line-height: normal ; font-family: &amp;#34;times new roman&amp;#34;&quot;&gt;&amp;nbsp; &amp;nbsp; &amp;nbsp;&amp;nbsp;&lt;span style=&quot;font-family: &amp;#34;calibri light&amp;#34; , sans-serif ; text-indent: -0.25in&quot;&gt;What’s the&amp;nbsp;&lt;/span&gt;&lt;span style=&quot;font-family: &amp;#34;calibri light&amp;#34; , sans-serif ; text-indent: -0.25in&quot;&gt;use case for this? &amp;nbsp;What’s the point?&lt;/span&gt;&lt;span style=&quot;font-family: &amp;#34;calibri light&amp;#34; , sans-serif ; text-indent: -0.25in&quot;&gt;&lt;br&gt;&lt;/span&gt;&lt;/span&gt;&lt;br&gt;&lt;span style=&quot;font-family: &amp;#34;calibri light&amp;#34; , sans-serif ; font-size: 12px ; text-indent: -0.25in&quot;&gt;b.&lt;/span&gt;&lt;span style=&quot;font-size: 12px ; text-indent: -0.25in ; font-stretch: normal ; line-height: normal ; font-family: &amp;#34;times new roman&amp;#34;&quot;&gt;&amp;nbsp; &amp;nbsp; &amp;nbsp;&lt;span style=&quot;font-family: &amp;#34;calibri light&amp;#34; , sans-serif ; text-indent: -0.25in&quot;&gt;Limit?&amp;nbsp; How many levels?&lt;/span&gt;&lt;br&gt;&lt;/span&gt;&lt;br&gt;&lt;span style=&quot;font-family: &amp;#34;calibri light&amp;#34; , sans-serif ; font-size: 12px ; text-indent: -0.25in&quot;&gt;c.&lt;/span&gt;&lt;span style=&quot;font-size: 12px ; text-indent: -0.25in ; font-stretch: normal ; line-height: normal ; font-family: &amp;#34;times new roman&amp;#34;&quot;&gt;&amp;nbsp; &amp;nbsp; &amp;nbsp;&amp;nbsp;&lt;/span&gt;&lt;br&gt;&lt;p class=&quot;MsoListParagraphCxSpMiddle&quot; style=&quot;margin-left: 1in ; text-indent: -0.25in ; font-size: 12px&quot;&gt;&lt;font style=&quot;font-size: 12px&quot;&gt;&lt;span style=&quot;line-height: 107% ; font-family: &amp;#34;calibri light&amp;#34; , sans-serif&quot;&gt;&amp;nbsp;&lt;/span&gt;&lt;/font&gt;&lt;/p&gt;&lt;span style=&quot;font-family: &amp;#34;calibri light&amp;#34; , sans-serif ; font-size: 12px ; text-indent: -0.25in&quot;&gt;3.&lt;/span&gt;&lt;span style=&quot;font-size: 12px ; text-indent: -0.25in ; font-stretch: normal ; line-height: normal ; font-family: &amp;#34;times new roman&amp;#34;&quot;&gt;&amp;nbsp; &amp;nbsp; &amp;nbsp;&lt;span style=&quot;font-family: &amp;#34;calibri light&amp;#34; , sans-serif ; text-indent: -0.25in&quot;&gt;If a dataset&amp;nbsp;&lt;/span&gt;&lt;span style=&quot;font-family: &amp;#34;calibri light&amp;#34; , sans-serif ; text-indent: -0.25in&quot;&gt;has stuff in it, can you delete?&amp;nbsp; What&lt;/span&gt;&lt;span style=&quot;font-family: &amp;#34;calibri light&amp;#34; , sans-serif ; text-indent: -0.25in&quot;&gt;happens to the stuff inside?&amp;nbsp; Where does i&lt;/span&gt;&lt;span style=&quot;font-family: &amp;#34;calibri light&amp;#34; , sans-serif ; text-indent: -0.25in&quot;&gt;t go?&lt;/span&gt;&lt;span style=&quot;font-family: &amp;#34;calibri light&amp;#34; , sans-serif&quot;&gt;&amp;nbsp;&lt;/span&gt;&lt;span style=&quot;font-family: &amp;#34;calibri light&amp;#34; , sans-serif ; text-indent: -0.25in&quot;&gt;&lt;br&gt;&lt;/span&gt;&lt;/span&gt;&lt;span style=&quot;font-size: 12px ; font-family: &amp;#34;calibri light&amp;#34; , sans-serif&quot;&gt;Focus on path.&lt;/span&gt;&lt;br&gt;&lt;span style=&quot;font-size: 12px ; font-family: &amp;#34;calibri light&amp;#34; , sans-serif&quot;&gt;Parent datasets and Children&lt;/span&gt;&lt;br&gt;&lt;p class=&quot;MsoNormal&quot; style=&quot;font-size: 12px&quot;&gt;&lt;span style=&quot;line-height: 107% ; font-family: &amp;#34;calibri light&amp;#34; , sans-serif&quot;&gt;&lt;font style=&quot;font-size: 12px&quot;&gt;datasets on equal footing.&amp;nbsp; Parent – all of&lt;br&gt;your children and all of your files.&amp;nbsp;&lt;br&gt;This dataset has 5 children and 0 files.&amp;nbsp;&lt;br&gt;Or 0 children and 17000 files.&amp;nbsp; Two&lt;br&gt;panels/views – show them separately.&amp;nbsp;&amp;nbsp;&lt;br&gt;Click on Child and see the file view.&amp;nbsp;&lt;br&gt;Click on Parent File View and see the files.&amp;nbsp; Show path in the file view – Parent Dataset/,&amp;nbsp;&amp;nbsp;&amp;nbsp; Child Dataset&amp;nbsp;&amp;nbsp; &lt;/font&gt;&lt;/span&gt;&lt;/p&gt;&lt;br&gt;&lt;br&gt;&lt;p class=&quot;MsoListParagraph&quot; style=&quot;font-size: 12px&quot;&gt;&lt;span style=&quot;line-height: 107% ; font-family: &amp;#34;calibri light&amp;#34; , sans-serif&quot;&gt;&lt;font style=&quot;font-size: 12px&quot;&gt;&amp;nbsp;&lt;/font&gt;&lt;/span&gt;&lt;/p&gt;" style="text;html=1;resizable=0;autosize=1;align=left;verticalAlign=middle;points=[];fillColor=none;strokeColor=none;rounded=0;fontSize=10;" vertex="1" parent="WIyWlLk6GJQsqaUBKTNV-1">
          <mxGeometry x="40" y="950" width="810" height="560" as="geometry" />
        </mxCell>
        <mxCell id="Qzo48M9Tub4ixmZhIlxQ-6" style="edgeStyle=orthogonalEdgeStyle;rounded=0;orthogonalLoop=1;jettySize=auto;html=1;fontSize=10;" edge="1" parent="WIyWlLk6GJQsqaUBKTNV-1" source="Qzo48M9Tub4ixmZhIlxQ-5" target="Qzo48M9Tub4ixmZhIlxQ-5">
          <mxGeometry relative="1" as="geometry" />
        </mxCell>
        <mxCell id="Qzo48M9Tub4ixmZhIlxQ-7" value="Give User the Option to Add Files to Existing Child or Create a New Child(ren)" style="rounded=1;whiteSpace=wrap;html=1;fontSize=12;glass=0;strokeWidth=1;shadow=0;" vertex="1" parent="WIyWlLk6GJQsqaUBKTNV-1">
          <mxGeometry x="160" y="494" width="130" height="76" as="geometry" />
        </mxCell>
        <mxCell id="Qzo48M9Tub4ixmZhIlxQ-8" value="" style="endArrow=block;html=1;fontSize=10;endFill=0;" edge="1" parent="WIyWlLk6GJQsqaUBKTNV-1">
          <mxGeometry width="50" height="50" relative="1" as="geometry">
            <mxPoint x="219" y="450" as="sourcePoint" />
            <mxPoint x="219.44" y="490" as="targetPoint" />
          </mxGeometry>
        </mxCell>
        <mxCell id="Qzo48M9Tub4ixmZhIlxQ-11" value="&lt;h1&gt;Datasets will managed in a directory structure.&lt;/h1&gt;" style="text;html=1;strokeColor=none;fillColor=none;spacing=5;spacingTop=-20;whiteSpace=wrap;overflow=hidden;rounded=0;fontSize=10;align=left;fontStyle=1" vertex="1" parent="WIyWlLk6GJQsqaUBKTNV-1">
          <mxGeometry x="690" y="50" width="250" height="80" as="geometry" />
        </mxCell>
        <mxCell id="Qzo48M9Tub4ixmZhIlxQ-14" value="" style="endArrow=block;html=1;fontSize=10;endFill=0;" edge="1" parent="WIyWlLk6GJQsqaUBKTNV-1">
          <mxGeometry width="50" height="50" relative="1" as="geometry">
            <mxPoint x="869.44" y="410" as="sourcePoint" />
            <mxPoint x="869.8800000000001" y="450" as="targetPoint" />
          </mxGeometry>
        </mxCell>
        <mxCell id="Qzo48M9Tub4ixmZhIlxQ-15" value="" style="endArrow=block;html=1;fontSize=10;endFill=0;" edge="1" parent="WIyWlLk6GJQsqaUBKTNV-1">
          <mxGeometry width="50" height="50" relative="1" as="geometry">
            <mxPoint x="220" y="260" as="sourcePoint" />
            <mxPoint x="219.88000000000005" y="350" as="targetPoint" />
          </mxGeometry>
        </mxCell>
        <mxCell id="Qzo48M9Tub4ixmZhIlxQ-16" value="Give User the Option to Move Files to the AutoCreated Child or to a New Child." style="rounded=1;whiteSpace=wrap;html=1;fontSize=10;glass=0;strokeWidth=1;shadow=0;" vertex="1" parent="WIyWlLk6GJQsqaUBKTNV-1">
          <mxGeometry x="650" y="190" width="140" height="40" as="geometry" />
        </mxCell>
        <mxCell id="Qzo48M9Tub4ixmZhIlxQ-17" value="No" style="text;html=1;strokeColor=none;fillColor=none;align=center;verticalAlign=middle;whiteSpace=wrap;rounded=0;fontSize=10;" vertex="1" parent="WIyWlLk6GJQsqaUBKTNV-1">
          <mxGeometry x="850" y="290" width="40" height="20" as="geometry" />
        </mxCell>
        <mxCell id="Qzo48M9Tub4ixmZhIlxQ-18" value="Yes" style="text;html=1;strokeColor=none;fillColor=none;align=center;verticalAlign=middle;whiteSpace=wrap;rounded=0;fontSize=10;" vertex="1" parent="WIyWlLk6GJQsqaUBKTNV-1">
          <mxGeometry x="850" y="330" width="40" height="20" as="geometry" />
        </mxCell>
        <mxCell id="Qzo48M9Tub4ixmZhIlxQ-19" value="" style="endArrow=block;html=1;fontSize=10;endFill=0;" edge="1" parent="WIyWlLk6GJQsqaUBKTNV-1">
          <mxGeometry width="50" height="50" relative="1" as="geometry">
            <mxPoint x="850" y="390" as="sourcePoint" />
            <mxPoint x="899.8800000000001" y="390" as="targetPoint" />
          </mxGeometry>
        </mxCell>
      </root>
    </mxGraphModel>
  </diagram>
</mxfile>
